<svg xmlns="http://www.w3.org/2000/svg" width="480px" height="438px" viewBox="0 0 480 438" version="1.1">
    <circle id="Oval" fill="#4671C6" cx="281.218" cy="390.034" r="43.882"></circle>
    <path d="M281.218,414.768 C267.58,414.768 256.484,403.672 256.484,390.034 C256.484,376.396 267.58,365.3 281.218,365.3 C294.854,365.3 305.95,376.396 305.95,390.034 C305.95,403.672 294.856,414.768 281.218,414.768 L281.218,414.768 Z" id="Path" fill="#AFD0FE"></path>
    <path d="M281.218,437.916 C254.816,437.916 233.336,416.436 233.336,390.034 C233.336,363.632 254.816,342.152 281.218,342.152 C307.62,342.152 329.098,363.632 329.098,390.034 C329.098,416.436 307.62,437.916 281.218,437.916 Z M281.218,350.152 C259.226,350.152 241.336,368.042 241.336,390.034 C241.336,412.026 259.226,429.916 281.218,429.916 C303.208,429.916 321.098,412.026 321.098,390.034 C321.098,368.042 303.208,350.152 281.218,350.152 Z" id="Shape" fill="#3762CC"></path>
    <circle id="Oval" fill="#4671C6" cx="96.272" cy="390.034" r="43.882"></circle>
    <path d="M96.272,414.768 C82.634,414.768 71.538,403.672 71.538,390.034 C71.538,376.396 82.634,365.3 96.272,365.3 C109.908,365.3 121.004,376.396 121.004,390.034 C121.004,403.672 109.91,414.768 96.272,414.768 L96.272,414.768 Z" id="Path" fill="#AFD0FE"></path>
    <path d="M96.272,437.916 C69.87,437.916 48.392,416.436 48.392,390.034 C48.392,363.632 69.872,342.152 96.272,342.152 C122.674,342.152 144.154,363.632 144.154,390.034 C144.154,416.436 122.674,437.916 96.272,437.916 Z M96.272,350.152 C74.282,350.152 56.392,368.042 56.392,390.034 C56.392,412.026 74.282,429.916 96.272,429.916 C118.264,429.916 136.154,412.026 136.154,390.034 C136.154,368.042 118.262,350.152 96.272,350.152 L96.272,350.152 Z" id="Shape" fill="#3762CC"></path>
    <path d="M109.174,346.152 L109.174,379.022 C109.174,384.96 104.36,389.774 98.422,389.774 L95.334,389.774 C90.748,389.774 86.666,386.864 85.17,382.53 L72.616,346.154 L109.174,346.154 L109.174,346.152 Z" id="Path" fill="#EAF3FF"></path>
    <path d="M294.12,346.152 L294.12,379.022 C294.12,384.96 289.306,389.774 283.368,389.774 L280.28,389.774 C275.694,389.774 271.612,386.864 270.116,382.53 L257.562,346.154 L294.12,346.154 L294.12,346.152 Z" id="Path" fill="#EAF3FF"></path>
    <path d="M98.422,393.774 L95.334,393.774 C89.044,393.774 83.44,389.78 81.388,383.834 L68.836,347.456 C68.414,346.234 68.61,344.882 69.36,343.83 C70.11,342.776 71.324,342.152 72.616,342.152 L109.174,342.152 C111.382,342.152 113.174,343.944 113.174,346.152 L113.174,379.022 C113.174,387.156 106.556,393.774 98.422,393.774 L98.422,393.774 Z M78.228,350.152 L88.95,381.224 C89.89,383.944 92.454,385.774 95.334,385.774 L98.422,385.774 C102.146,385.774 105.174,382.744 105.174,379.022 L105.174,350.152 L78.228,350.152 Z" id="Shape" fill="#4E97FD"></path>
    <path d="M283.368,393.774 L280.28,393.774 C273.99,393.774 268.386,389.778 266.334,383.834 L253.78,347.458 C253.358,346.236 253.554,344.884 254.304,343.832 C255.054,342.778 256.268,342.154 257.56,342.154 L294.12,342.154 C296.328,342.154 298.12,343.946 298.12,346.154 L298.12,379.024 C298.122,387.156 291.502,393.774 283.368,393.774 L283.368,393.774 Z M263.174,350.152 L273.896,381.224 C274.836,383.946 277.4,385.774 280.278,385.774 L283.366,385.774 C287.09,385.774 290.118,382.744 290.118,379.022 L290.118,350.152 L263.174,350.152 Z" id="Shape" fill="#4E97FD"></path>
    <path d="M466.57,46.516 L387.938,46.516 C382.73,46.516 378.508,42.294 378.508,37.086 L378.508,13.514 C378.508,8.306 382.73,4.084 387.938,4.084 L466.57,4.084 C471.778,4.084 476,8.306 476,13.514 L476,37.088 C476,42.294 471.778,46.516 466.57,46.516 Z" id="Path" fill="#AFD0FE"></path>
    <path d="M466.57,50.516 L387.938,50.516 C380.532,50.516 374.508,44.492 374.508,37.086 L374.508,13.514 C374.508,6.108 380.532,0.084 387.938,0.084 L466.57,0.084 C473.976,0.084 480,6.108 480,13.514 L480,37.088 C480,44.492 473.976,50.516 466.57,50.516 Z M387.938,8.084 C384.944,8.084 382.508,10.52 382.508,13.514 L382.508,37.088 C382.508,40.082 384.944,42.518 387.938,42.518 L466.57,42.518 C469.564,42.518 472,40.082 472,37.088 L472,13.514 C472,10.52 469.564,8.084 466.57,8.084 L387.938,8.084 Z" id="Shape" fill="#4E97FD"></path>
    <path d="M350.454,46.12 C351.166,40.97 355.298,37.086 360.062,37.086 L378.508,37.086 L378.508,13.514 L360.062,13.514 C343.586,13.514 329.416,26.144 327.1,42.892 L324.35,62.784 L334.26,62.784 C337.66,62.784 340.894,64.252 343.132,66.812 C345.372,69.372 346.394,72.774 345.94,76.144 L350.454,46.12 Z" id="Path" fill="#EAF3FF"></path>
    <path d="M345.95,80.146 C345.762,80.146 345.574,80.132 345.382,80.104 C343.206,79.794 341.688,77.788 341.982,75.61 C342.28,73.382 341.606,71.136 340.128,69.446 C338.648,67.752 336.512,66.782 334.266,66.782 L324.354,66.782 C323.198,66.782 322.098,66.282 321.338,65.41 C320.578,64.538 320.232,63.38 320.392,62.234 L323.142,42.342 C325.728,23.626 341.602,9.51 360.064,9.51 L378.51,9.51 C380.718,9.51 382.51,11.302 382.51,13.51 L382.51,37.084 C382.51,39.292 380.718,41.084 378.51,41.084 L360.064,41.084 C357.284,41.084 354.856,43.484 354.418,46.664 C354.416,46.68 354.414,46.696 354.412,46.71 L349.902,76.734 C349.604,78.72 347.898,80.146 345.95,80.146 L345.95,80.146 Z M328.944,58.786 L334.264,58.786 C337.822,58.786 341.246,59.988 344.002,62.148 L346.496,45.55 C347.49,38.444 353.318,33.088 360.064,33.088 L374.51,33.088 L374.51,17.514 L360.064,17.514 C345.576,17.514 333.108,28.66 331.064,43.44 L328.944,58.786 Z" id="Shape" fill="#4E97FD"></path>
    <path d="M343.136,66.814 C340.898,64.254 337.664,62.786 334.264,62.786 L24.39,62.786 C18.508,62.786 12.914,65.324 9.042,69.752 C5.17,74.18 3.398,80.062 4.182,85.896 L28.102,263.548 C30.028,277.87 42.382,288.672 56.834,288.672 L92.5,288.672 L99.62,288.672 L104.428,288.672 L245.62,288.672 L250.428,288.672 L260.816,288.672 L291.98,288.672 C306.432,288.672 318.782,277.872 320.71,263.55 L345.944,76.148 C346.398,72.774 345.376,69.374 343.136,66.814 Z M28.03,86.358 L73.594,86.358 L80.382,163.94 L38.476,163.94 L28.03,86.358 Z M56.836,265.096 C54.136,265.096 51.826,263.078 51.466,260.402 L41.652,187.514 L82.446,187.514 L89.234,265.096 L56.836,265.096 Z M163.24,265.096 L112.898,265.096 L106.11,187.514 L163.24,187.514 L163.24,265.096 Z M163.24,163.94 L104.048,163.94 L97.26,86.358 L163.24,86.358 L163.24,163.94 Z M237.154,265.096 L186.812,265.096 L186.812,187.514 L243.94,187.514 L237.154,265.096 Z M246.004,163.94 L186.814,163.94 L186.814,86.358 L252.792,86.358 L246.004,163.94 Z M297.35,260.402 C296.988,263.078 294.682,265.096 291.982,265.096 L260.82,265.096 L267.606,187.514 L307.164,187.514 L297.35,260.402 Z M310.338,163.94 L269.668,163.94 L276.456,86.358 L320.784,86.358 L310.338,163.94 Z" id="Shape" fill="#EAF3FF"></path>
    <path d="M306.664,288.67 C315.384,288.67 322.476,296.276 322.476,305.624 C322.476,314.972 315.384,322.58 306.664,322.58 L41.792,322.58 C35.282,322.58 30.006,327.856 30.006,334.366 C30.006,340.876 35.282,346.152 41.792,346.152 L306.666,346.152 C328.384,346.152 346.052,327.972 346.052,305.624 C346.052,288.048 335.102,273.09 319.868,267.488 C316.408,279.798 305.072,288.668 291.984,288.668 L306.664,288.67 Z" id="Path" fill="#EAF3FF"></path>
    <path d="M291.982,292.668 L56.834,292.668 C40.386,292.668 26.332,280.376 24.138,264.078 L0.218,86.428 C-0.722,79.452 1.398,72.414 6.03,67.116 C10.662,61.822 17.354,58.784 24.388,58.784 L334.264,58.784 C338.818,58.784 343.148,60.75 346.146,64.18 C349.144,67.606 350.516,72.16 349.908,76.678 L324.674,264.082 C322.484,280.378 308.428,292.668 291.982,292.668 Z M24.39,66.784 C19.662,66.784 15.166,68.828 12.054,72.386 C8.94,75.944 7.516,80.676 8.148,85.362 L32.068,263.012 C33.73,275.358 44.376,284.67 56.836,284.67 L291.984,284.67 C304.442,284.67 315.088,275.36 316.75,263.014 L341.984,75.61 C342.282,73.382 341.608,71.136 340.13,69.448 C340.13,69.448 340.13,69.448 340.13,69.446 C338.65,67.754 336.514,66.784 334.268,66.784 L24.39,66.784 L24.39,66.784 Z M291.982,269.096 L260.82,269.096 C259.698,269.096 258.628,268.626 257.87,267.798 C257.112,266.972 256.736,265.864 256.834,264.748 L263.622,187.166 C263.802,185.1 265.532,183.514 267.606,183.514 L307.164,183.514 C308.318,183.514 309.416,184.012 310.174,184.882 C310.934,185.75 311.282,186.904 311.128,188.048 L301.314,260.936 C300.686,265.588 296.674,269.096 291.982,269.096 L291.982,269.096 Z M265.184,261.096 L291.982,261.096 C292.676,261.096 293.294,260.556 293.386,259.868 L302.59,191.514 L271.272,191.514 L265.184,261.096 Z M237.154,269.096 L186.814,269.096 C184.606,269.096 182.814,267.304 182.814,265.096 L182.814,187.514 C182.814,185.306 184.606,183.514 186.814,183.514 L243.942,183.514 C245.064,183.514 246.134,183.984 246.892,184.812 C247.65,185.638 248.026,186.746 247.928,187.862 L241.14,265.444 C240.958,267.51 239.228,269.096 237.154,269.096 L237.154,269.096 Z M190.812,261.096 L233.488,261.096 L239.574,191.514 L190.812,191.514 L190.812,261.096 Z M163.24,269.096 L112.898,269.096 C110.824,269.096 109.094,267.512 108.914,265.444 L102.126,187.862 C102.028,186.744 102.404,185.638 103.162,184.812 C103.92,183.986 104.99,183.514 106.112,183.514 L163.24,183.514 C165.448,183.514 167.24,185.306 167.24,187.514 L167.24,265.096 C167.24,267.304 165.448,269.096 163.24,269.096 L163.24,269.096 Z M116.562,261.096 L159.24,261.096 L159.24,191.514 L110.474,191.514 L116.562,261.096 Z M89.232,269.096 L56.834,269.096 C52.14,269.096 48.128,265.588 47.5,260.936 L37.686,188.048 C37.532,186.904 37.88,185.75 38.64,184.882 C39.398,184.012 40.496,183.514 41.65,183.514 L82.444,183.514 C84.518,183.514 86.248,185.098 86.428,187.166 L93.216,264.748 C93.314,265.866 92.938,266.972 92.18,267.798 C91.424,268.626 90.354,269.096 89.232,269.096 L89.232,269.096 Z M46.224,191.514 L55.428,259.868 C55.52,260.556 56.138,261.096 56.834,261.096 L84.866,261.096 L78.778,191.514 L46.224,191.514 Z M310.338,167.942 L269.668,167.942 C268.546,167.942 267.476,167.472 266.718,166.644 C265.96,165.818 265.584,164.71 265.682,163.594 L272.47,86.01 C272.65,83.944 274.38,82.358 276.454,82.358 L320.782,82.358 C321.936,82.358 323.034,82.856 323.794,83.726 C324.552,84.594 324.9,85.748 324.746,86.892 L314.3,164.476 C314.036,166.46 312.34,167.942 310.338,167.942 L310.338,167.942 Z M274.034,159.942 L306.84,159.942 L316.21,90.358 L280.12,90.358 L274.034,159.942 Z M246.002,167.942 L186.812,167.942 C184.604,167.942 182.812,166.15 182.812,163.942 L182.812,86.358 C182.812,84.15 184.604,82.358 186.812,82.358 L252.79,82.358 C253.912,82.358 254.982,82.828 255.74,83.656 C256.498,84.482 256.872,85.59 256.776,86.706 L249.988,164.29 C249.806,166.356 248.078,167.942 246.002,167.942 Z M190.812,159.942 L242.338,159.942 L248.424,90.358 L190.812,90.358 L190.812,159.942 Z M163.24,167.942 L104.046,167.942 C101.972,167.942 100.242,166.358 100.062,164.29 L93.274,86.706 C93.176,85.588 93.552,84.482 94.31,83.656 C95.068,82.828 96.138,82.358 97.26,82.358 L163.24,82.358 C165.448,82.358 167.24,84.15 167.24,86.358 L167.24,163.942 C167.24,166.15 165.448,167.942 163.24,167.942 Z M107.712,159.942 L159.24,159.942 L159.24,90.358 L101.624,90.358 L107.712,159.942 Z M80.382,167.942 L38.476,167.942 C36.474,167.942 34.778,166.46 34.512,164.476 L24.066,86.892 C23.912,85.748 24.26,84.594 25.02,83.726 C25.778,82.856 26.876,82.358 28.03,82.358 L73.594,82.358 C75.668,82.358 77.398,83.942 77.578,86.01 L84.366,163.594 C84.464,164.712 84.088,165.818 83.33,166.644 C82.574,167.47 81.502,167.942 80.382,167.942 Z M41.972,159.942 L76.016,159.942 L69.928,90.358 L32.604,90.358 L41.972,159.942 Z" id="Shape" fill="#4E97FD"></path>
    <path d="M306.666,350.152 L41.792,350.152 C33.088,350.152 26.006,343.07 26.006,334.366 C26.006,325.662 33.088,318.58 41.792,318.58 L306.666,318.58 C313.18,318.58 318.478,312.768 318.478,305.624 C318.478,298.48 313.18,292.668 306.666,292.668 L291.984,292.668 C289.776,292.668 287.984,290.876 287.984,288.668 C287.984,286.46 289.776,284.668 291.984,284.668 C303.112,284.668 312.996,277.158 316.018,266.406 C316.32,265.332 317.056,264.434 318.05,263.926 C319.044,263.418 320.204,263.348 321.25,263.734 C338.478,270.07 350.052,286.904 350.052,305.624 C350.052,330.178 330.588,350.152 306.666,350.152 L306.666,350.152 Z M41.792,326.58 C37.5,326.58 34.006,330.074 34.006,334.366 C34.006,338.658 37.5,342.152 41.792,342.152 L306.666,342.152 C326.178,342.152 342.052,325.766 342.052,305.624 C342.052,291.63 334.216,278.932 322.188,272.852 C319.98,277.896 316.57,282.232 312.366,285.554 C320.52,288.15 326.478,296.166 326.478,305.626 C326.478,317.18 317.59,326.582 306.666,326.582 L41.792,326.582 L41.792,326.58 Z" id="Shape" fill="#4E97FD"></path>
    <circle id="Oval" fill="#6BDDDD" cx="342.922" cy="175.872" r="78.17"></circle>
    <path d="M342.922,234.042 C310.846,234.042 284.752,207.946 284.752,175.872 C284.752,143.798 310.846,117.702 342.922,117.702 C374.998,117.702 401.092,143.798 401.092,175.872 C401.092,207.946 374.998,234.042 342.922,234.042 Z" id="Path" fill="#FCF5D7"></path>
    <path d="M342.922,258.042 C297.614,258.042 260.752,221.18 260.752,175.872 C260.752,130.562 297.614,93.702 342.922,93.702 C388.232,93.702 425.092,130.564 425.092,175.872 C425.092,221.18 388.232,258.042 342.922,258.042 Z M342.922,101.702 C302.024,101.702 268.752,134.974 268.752,175.872 C268.752,216.77 302.024,250.042 342.922,250.042 C383.82,250.042 417.092,216.77 417.092,175.872 C417.092,134.974 383.82,101.702 342.922,101.702 Z" id="Shape" fill="#4E97FD"></path>
    <path d="M377.298,188.126 L308.548,188.126 C306.338,188.126 304.548,186.336 304.548,184.126 L304.548,167.376 C304.548,165.166 306.338,163.376 308.548,163.376 L377.298,163.376 C379.508,163.376 381.298,165.166 381.298,167.376 L381.298,184.126 C381.298,186.334 379.506,188.126 377.298,188.126 Z" id="Path" fill="#F9A7A7"></path>
</svg>
