<svg xmlns="http://www.w3.org/2000/svg" viewBox="0 0 96.01 113.12"><title>account</title><g id="Layer_2" data-name="Layer 2"><g id="Layer_1-2" data-name="Layer 1"><path d="M96,113.12H0C-.58,94.27,5.72,78.83,21.4,68.37,38,57.3,55.65,56.87,72.72,67.2,89.6,77.41,96.45,93.31,96,113.12ZM9.17,105H86.82C86.27,84.81,68.65,68.22,48,68.22S9.57,84.93,9.17,105Z"/><path d="M47.88,55.32A27.89,27.89,0,0,1,20.11,27.67a27.88,27.88,0,0,1,55.75.17C75.75,42.88,63,55.37,47.88,55.32ZM48.06,8A19.81,19.81,0,0,0,28.15,27.58c-.07,10.66,9,19.68,19.8,19.71a19.85,19.85,0,0,0,19.87-19.6A19.68,19.68,0,0,0,48.06,8Z"/></g></g></svg>