<svg xmlns="http://www.w3.org/2000/svg" viewBox="0 0 181.59 185.68"><title>bag</title><g id="Layer_2" data-name="Layer 2"><g id="Layer_1-2" data-name="Layer 1"><path d="M129.51,47.56c8.59,0,16.4,0,24.22,0,9.68.06,14.08,3.85,15.18,13.45,3.33,28.93,6.54,57.88,9.83,86.81.83,7.27,1.67,14.54,2.67,21.78,1.27,9.26-4.33,15.95-13.78,16-8.33.08-16.66,0-25,0q-63.48,0-127,0c-5,0-10.18-.23-12.83-4.93C1,177.47-.31,173.19.06,169.57c3-29,6.37-57.87,9.66-86.8.89-7.77,1.76-15.55,2.82-23.3,1.1-8.08,6.83-12.4,14.91-12.11s15.88.06,24.39.06C51,32.49,53.71,19.1,65.61,9.26A38,38,0,0,1,91.85,0c12.05.43,21.83,5.49,29.33,14.82S130.09,35.34,129.51,47.56ZM16.6,126.94H164.69c-2.39-21.71-4.71-43.06-7.18-64.39-.14-1.14-1.54-3-2.39-3-8.43-.23-16.87-.14-25.6-.14,0,4,.07,7.33,0,10.65-.1,3.88-2,6.52-6,6.48s-5.74-2.81-5.77-6.67c0-3.41,0-6.83,0-10.22h-54c0,3.58,0,6.88,0,10.17,0,3.92-1.74,6.63-5.74,6.76-4.41.15-6-2.87-6.11-6.89-.05-3.28,0-6.56,0-10.3-8.7,0-16.83-.14-24.95.16-1.08,0-2.76,2.17-3,3.54C23,68,22.67,73,22.11,77.93,20.3,94.15,18.47,110.36,16.6,126.94Zm-4.86,46H169.61c-1.3-11.44-2.55-22.45-3.82-33.6H15.52C14.26,150.58,13,161.61,11.74,173ZM117.36,47.28c1.5-12.56-.62-23.6-11.68-30.92C96.07,10,85.9,9.88,76.14,16.11,64.74,23.39,62.46,34.48,64,47.28Z"/></g></g></svg>