<svg xmlns="http://www.w3.org/2000/svg" viewBox="0 0 164.97 156.27"><title>favorite</title><g id="Layer_2" data-name="Layer 2"><g id="Layer_1-2" data-name="Layer 1"><path d="M29.33,148.28c2.13-12.44,4-25.81,6.85-39,1.49-6.89.39-11.59-5.12-16.39C21.54,84.61,12.84,75.36,3.75,66.55c-2.38-2.3-5-5-3.07-8.12a11.73,11.73,0,0,1,7.38-4.64c14.13-2.08,28.34-3.74,42.55-5.24,3.34-.35,4.86-1.82,6.22-4.64C63,31,69.26,18.14,75.88,5.46,77.16,3,80.24,0,82.5,0s5.39,3,6.67,5.41c6.7,12.82,13,25.85,19.26,38.9a6.57,6.57,0,0,0,6,4.22c13.72,1.47,27.41,3.18,41.09,4.95a17.69,17.69,0,0,1,7.06,2.05c3.46,2.19,3.13,6.62-.53,10.23C151.7,75.92,141.37,86.09,130.89,96.1c-2.52,2.41-3.47,4.54-2.75,8.22q4,20.57,7.07,41.32c.42,2.91-.25,6.86-2,9-2.73,3.3-6.35.84-9.48-.81-12.65-6.68-25.26-13.44-38-19.85a8.56,8.56,0,0,0-6.67.24c-13.22,6.67-26.25,13.7-39.4,20.51C33.79,157.73,29.16,155.12,29.33,148.28ZM21.69,64.43C28.34,71.59,34.55,79.5,42,86c7.3,6.32,9.67,12.71,7.09,22.17s-3.48,19.44-5.28,30.19c11.84-6.22,22.74-11.85,33.53-17.69a9.77,9.77,0,0,1,10.32,0c8.75,4.8,17.64,9.34,26.48,14l7.13,3.72c-2.14-12.69-3.78-24.2-6.14-35.57-1.12-5.39.16-9,4-12.82,8.34-8.3,16.13-17.14,23.93-25.53-7.86-1.18-16.81-3.46-25.8-3.65-12-.24-18.82-5.58-23-16.48-3-8-7.48-15.42-11.67-23.84-1.22,2.16-2.06,3.51-2.76,4.93C76,33.24,72,41.12,68.24,49.08,65.3,55.26,61.57,59.32,53.8,59.85,42.78,60.6,31.86,62.91,21.69,64.43Z"/></g></g></svg>