<svg xmlns="http://www.w3.org/2000/svg" viewBox="0 0 153.13 152.9"><title>search</title><g id="Layer_2" data-name="Layer 2"><g id="Layer_1-2" data-name="Layer 1"><path d="M107.39,98.66c2.91,2.64,5.69,5.27,8.6,7.75a4.76,4.76,0,0,0,3,1.32c5.64-.58,9.4,2.46,13,6.15,5.69,5.85,11.55,11.53,17.25,17.38a12.75,12.75,0,0,1,0,18.29c-4.72,4.78-11.06,4.47-16.74-1.06q-10-9.77-19.74-19.83c-1.55-1.61-3.43-4-3.31-5.91.47-7.87-5.76-11-10.16-15.88-15.47,12.32-32.89,16.25-52.06,12-14.52-3.23-26.49-10.62-35.34-22.68-18.33-25-15.14-59.72,6.75-80.65,21-20.11,59.88-20.67,81.46-1.79C123.13,33.84,130.48,66.76,107.39,98.66ZM109,61.45c-.1-27.77-22.19-50.84-48.53-50.67-26.17.16-48.73,22.6-48.63,48.37.1,26.78,21.77,49.15,47.63,49.16C87,108.33,109.11,87.37,109,61.45Z"/></g></g></svg>